<?xml version="1.0" encoding="UTF-8"?>
<svg id="Layer_1" data-name="Layer 1" xmlns="http://www.w3.org/2000/svg" viewBox="0 0 24.78 49.87">
  <path d="M12.38,2.7c-.62,0-1.03.21-1.25.64-.21.41-.33,1.09-.33,2.06v39.09c0,.95.1,1.65.33,2.08.21.41.64.62,1.25.62s1.03-.21,1.25-.62c.23-.41.35-1.11.35-2.08V5.39c0-.95-.1-1.65-.35-2.06-.2-.41-.64-.64-1.25-.64M0,41.62V8.25C0,5.49.7,3.44,2.1,2.06,3.5.7,5.72,0,8.76,0h7.34c3.02,0,5.23.68,6.6,2.06,1.38,1.36,2.08,3.44,2.08,6.19v33.37c0,2.76-.68,4.81-2.08,6.19-1.36,1.36-3.56,2.06-6.6,2.06h-7.34c-3.02,0-5.25-.68-6.66-2.06C.7,46.45,0,44.38,0,41.62" fill="#fa968c" stroke-width="0"/>
</svg>